<svg width="52" height="52" viewBox="0 0 52 52" fill="none" xmlns="http://www.w3.org/2000/svg">
<path d="M24.0242 5.53537C26.4853 5.53536 28.8944 5.53406 31.3035 5.53569C34.0707 5.53757 35.7889 7.24728 35.7897 10.0019C35.7911 15.2881 35.7931 20.5742 35.7887 25.8604C35.7869 27.9909 34.6618 29.5332 32.6917 30.0681C32.2477 30.1887 31.7674 30.2154 31.3037 30.2166C27.2134 30.2275 23.1231 30.2292 19.0329 30.2158C18.4524 30.2139 17.96 30.3625 17.4796 30.6882C15.1852 32.2437 12.8758 33.777 10.5746 35.3224C10.1224 35.626 9.65023 35.8033 9.10697 35.6199C8.52389 35.423 8.1988 34.9218 8.19485 34.1954C8.18778 32.898 8.19286 31.6005 8.19286 30.1803C7.58762 30.1803 7.00444 30.2247 6.4301 30.1723C4.40666 29.9875 2.88315 28.4192 2.72188 26.3945C2.70814 26.222 2.70483 26.0483 2.7048 25.8751C2.70394 20.537 2.70111 15.1988 2.70559 9.86068C2.70735 7.77545 3.83683 6.23653 5.79162 5.69817C6.25114 5.57162 6.74936 5.54282 7.22991 5.54193C12.8107 5.53165 18.3914 5.53537 24.0242 5.53537ZM30.0995 15.8731C30.6042 14.6469 30.0188 13.7622 28.6902 13.7616C22.401 13.7589 16.1118 13.7599 9.82264 13.7625C9.61596 13.7625 9.40315 13.7674 9.20382 13.8148C8.70708 13.9328 8.38695 14.2467 8.26495 14.75C8.02385 15.7448 8.61172 16.5045 9.6633 16.5108C11.7596 16.5235 13.8561 16.5145 15.9525 16.5145C20.1973 16.5145 24.442 16.5125 28.6868 16.5173C29.2317 16.5179 29.7231 16.4264 30.0995 15.8731ZM9.37735 19.2613C8.5364 19.4702 8.13088 20.0038 8.22373 20.7793C8.31659 21.5548 8.79947 21.986 9.64594 21.9879C13.3019 21.9959 16.9579 21.9962 20.6139 21.9883C21.5115 21.9864 22.0533 21.4607 22.0632 20.6365C22.0732 19.7994 21.508 19.2521 20.5925 19.2511C16.8845 19.2472 13.1766 19.2526 9.37735 19.2613Z" fill="white"/>
<path d="M41.6001 16.5127C42.8306 16.5127 44.0091 16.5058 45.1875 16.5141C47.7551 16.5324 49.4993 18.2725 49.5022 20.8331C49.5083 26.171 49.5074 31.5088 49.5026 36.8467C49.5002 39.4312 47.7475 41.1732 45.1531 41.1874C44.7926 41.1894 44.432 41.1877 44.0152 41.1877C44.0152 42.2958 44.0152 43.3646 44.0151 44.4335C44.0151 44.6762 44.0114 44.9188 44.0157 45.1614C44.0259 45.7442 43.8248 46.2182 43.2941 46.5016C42.7645 46.7844 42.2478 46.6837 41.7685 46.3738C41.0703 45.9224 40.3836 45.4529 39.6924 44.9906C37.9212 43.8059 36.1551 42.6134 34.3733 41.4449C34.1456 41.2956 33.8368 41.1992 33.5652 41.1982C29.3019 41.1831 25.0385 41.1912 20.7751 41.1863C18.6686 41.1839 17.0452 40.0815 16.6042 38.1334C16.3639 37.0719 16.4634 35.9321 16.4312 34.827C16.4283 34.7281 16.5666 34.598 16.6701 34.5276C17.3719 34.0502 18.073 33.5704 18.7954 33.1255C18.9844 33.0091 19.2476 32.9695 19.4769 32.969C23.4976 32.96 27.5183 32.9726 31.539 32.9596C35.1416 32.9479 38.0275 30.4489 38.47 26.9748C38.5245 26.5467 38.5337 26.1106 38.5345 25.6782C38.5398 22.6462 38.5373 19.6141 38.5373 16.5127C39.5513 16.5127 40.5497 16.5127 41.6001 16.5127Z" fill="white"/>
</svg>
