<svg width="52" height="52" viewBox="0 0 52 52" fill="none" xmlns="http://www.w3.org/2000/svg">
<path d="M29.9489 35.4078C29.5712 36.898 27.7066 37.4757 26.5253 36.4849C25.334 35.4858 24.1661 34.4586 22.9882 33.4436C22.9189 33.3839 22.8533 33.3196 22.7819 33.2627C22.5654 33.0899 22.3345 33.0346 22.1372 33.2705C21.9441 33.5015 22.0177 33.7227 22.2322 33.908C22.8553 34.446 23.4784 34.984 24.1018 35.5217C24.6443 35.9896 25.1785 36.4679 25.7341 36.9199C25.9881 37.1265 26.0052 37.3127 25.8424 37.5808C25.5255 38.1026 24.9733 38.3276 24.29 38.1197C23.9468 38.0152 23.6121 37.8453 23.3099 37.6489C18.9966 34.8448 14.6919 32.0275 10.3761 29.2271C10.0581 29.0207 9.97954 28.8454 10.0828 28.4687C10.9623 25.2591 11.8208 22.0437 12.6694 18.8257C12.7589 18.4866 12.9209 18.3385 13.2562 18.2472C14.6635 17.8641 16.0613 17.4462 17.463 17.0428C17.5333 17.0226 17.6085 17.0192 17.623 17.017C17.3904 17.6363 17.1431 18.2591 16.9265 18.8925C16.8595 19.0886 16.8604 19.3132 16.8577 19.5251C16.8477 20.3135 16.6924 21.0615 16.3255 21.7679C16.1656 22.0756 16.0272 22.4039 15.9412 22.7388C15.7055 23.657 16.2593 24.4243 17.2065 24.422C18.5964 24.4186 19.7123 23.8219 20.4604 22.6406C20.8332 22.0521 21.1135 21.4053 21.4428 20.7887C21.8592 20.0086 22.3929 19.3389 23.2074 18.9342C23.8589 18.6105 24.4521 18.6496 25.0265 19.1319C28.4237 21.9839 31.8384 24.815 35.2201 27.685C35.7922 28.1705 36.2529 28.7947 36.7242 29.3873C36.896 29.6033 36.9832 29.9056 37.0495 30.1827C37.2791 31.143 36.7617 31.8091 35.7716 31.8442C34.9727 31.8725 34.272 31.6944 33.6486 31.11C32.1807 29.734 30.6588 28.4157 29.1623 27.0701C28.9256 26.8573 28.6724 26.6127 28.3847 26.9185C28.0709 27.2522 28.363 27.492 28.6072 27.7107C30.1632 29.1042 31.7122 30.5058 33.2819 31.8837C33.5393 32.1096 33.6351 32.3434 33.6457 32.6641C33.6841 33.8262 33.2562 34.5697 32.34 34.728C31.5664 34.8617 30.8349 34.809 30.187 34.1844C28.8373 32.8834 27.4251 31.6471 26.0307 30.393C25.8918 30.2682 25.7052 30.1569 25.5272 30.1302C25.4255 30.115 25.2005 30.2822 25.1992 30.3698C25.1965 30.5561 25.248 30.8032 25.3744 30.9221C26.3852 31.8724 27.4184 32.7988 28.4453 33.7319C28.8628 34.1113 29.293 34.4777 29.6934 34.8743C29.8196 34.9994 29.8677 35.2034 29.9489 35.4078Z" fill="#1C3B2B"/>
<path d="M18.5383 17.4241C19.6173 16.2205 21.0178 15.6597 22.4792 15.1852C24.7462 14.4493 26.9954 14.8045 29.2465 15.2371C32.0936 15.7843 34.7731 16.8743 37.502 17.804C37.5739 17.8285 37.6445 17.8654 37.7183 17.8742C38.9262 18.0181 39.3841 18.755 39.6558 19.9029C40.3796 22.9617 41.2422 25.9878 42.0672 29.0221C42.1532 29.3385 42.0957 29.5149 41.8445 29.7152C40.6766 30.6464 39.3799 31.2496 37.846 31.3888C38.2023 29.7073 37.4062 28.4977 36.2564 27.492C34.3989 25.8673 32.4909 24.3002 30.6023 22.7111C28.9702 21.3378 27.333 19.9706 25.7026 18.5953C24.6262 17.6872 23.6357 17.6146 22.4494 18.3819C21.7295 18.8476 21.1918 19.4791 20.7977 20.237C20.4895 20.8299 20.205 21.4368 19.8652 22.011C19.3668 22.8529 18.6149 23.3651 17.6527 23.5597C16.883 23.7153 16.6083 23.4102 16.8605 22.6723C17.11 21.9421 17.3792 21.2185 17.6173 20.4847C17.6813 20.2873 17.6821 20.063 17.6799 19.8514C17.6704 18.9481 17.9336 18.1436 18.5383 17.4241Z" fill="#1C3B2B"/>
<path d="M49.2357 27.4729C49.3001 27.8973 49.434 28.2937 49.3922 28.6706C49.3314 29.22 48.9727 29.6167 48.4253 29.7712C47.2414 30.1053 46.0564 30.4385 44.862 30.732C44.0443 30.9329 43.3311 30.4658 43.1158 29.6631C41.9706 25.3934 40.8254 21.1238 39.6772 16.8549C39.3536 15.652 39.7132 15.0184 40.9296 14.6887C41.9414 14.4144 42.9548 14.1462 43.9684 13.8785C44.9279 13.6251 45.6161 14.0185 45.8756 14.9808C46.995 19.132 48.11 23.2843 49.2357 27.4729Z" fill="#1C3B2B"/>
<path d="M2.87438 27.1091C3.96875 23.0398 5.05184 19.0061 6.13968 14.9738C6.39826 14.0153 7.08578 13.6275 8.05106 13.8821C9.12301 14.1648 10.1945 14.4494 11.2652 14.7365C12.2155 14.9913 12.6346 15.6923 12.3821 16.6377C11.2303 20.9515 10.0747 25.2642 8.9145 29.5757C8.64929 30.5612 7.96822 30.9372 6.96941 30.6734C5.91254 30.3942 4.85622 30.1129 3.80021 29.8304C2.82953 29.5708 2.42331 28.873 2.67116 27.895C2.73457 27.6448 2.80022 27.3951 2.87438 27.1091Z" fill="#1C3B2B"/>
</svg>
