<svg width="52" height="52" viewBox="0 0 52 52" fill="none" xmlns="http://www.w3.org/2000/svg">
<path d="M40.1513 25.9044C40.1513 26.5117 40.1513 27.0733 40.1513 27.6402C34.4052 25.6396 29.4248 26.6821 25.4105 31.3424C23.6582 33.3766 22.7876 35.8324 22.6379 38.5258C22.4885 41.2154 23.1571 43.6985 24.6103 46.0276C24.4202 46.0396 24.2906 46.0549 24.161 46.0549C19.7575 46.0561 15.3539 46.0533 10.9504 46.0571C9.22126 46.0586 7.86688 45.3875 7.13372 43.7776C6.87249 43.204 6.74304 42.5192 6.74182 41.8848C6.71924 30.1742 6.71979 18.4637 6.72954 6.75313C6.73162 4.26099 8.40779 2.60294 10.8744 2.60206C19.2563 2.59906 27.6383 2.59964 36.0202 2.60184C38.0142 2.60236 39.516 3.69504 40.0135 5.54287C40.1301 5.97596 40.1452 6.44629 40.1458 6.89957C40.1539 13.2193 40.1513 19.539 40.1513 25.9044ZM29.2388 6.72441C23.6048 6.72441 17.9709 6.72384 12.3369 6.72667C12.1261 6.72677 11.9079 6.73059 11.7059 6.78264C10.8359 7.00683 10.5139 8.00344 11.0817 8.6926C11.3916 9.06869 11.8132 9.1287 12.2716 9.12837C19.1053 9.12338 25.9389 9.12504 32.7726 9.12396C32.9241 9.12394 33.0924 9.1501 33.2235 9.09445C33.4796 8.98571 33.7542 8.86888 33.9502 8.68095C34.2887 8.35628 34.3374 7.91205 34.1601 7.49556C33.9466 6.99396 33.531 6.72772 32.9745 6.72612C31.7597 6.72263 30.5448 6.72464 29.2388 6.72441ZM34.1976 20.6711C34.1625 20.3624 34.201 20.0193 34.0769 19.7522C33.8306 19.2223 33.3332 19.1186 32.7763 19.1193C25.9469 19.1285 19.1175 19.1252 12.2881 19.1255C12.1667 19.1255 12.0452 19.1265 11.924 19.1321C11.4131 19.1556 11.0807 19.4432 10.8807 19.8865C10.6765 20.3391 10.8006 20.7555 11.1148 21.1097C11.4063 21.4381 11.7936 21.521 12.2257 21.5206C19.0854 21.5144 25.9452 21.5126 32.8049 21.5223C33.4324 21.5231 33.8883 21.3039 34.1976 20.6711ZM12.1305 15.3124C17.6433 15.3124 23.1561 15.3134 28.6689 15.3113C29.4562 15.311 30.0039 14.8221 30.01 14.1327C30.016 13.4464 29.4564 12.9284 28.6888 12.9281C23.1608 12.9259 17.6328 12.926 12.1048 12.9281C11.3591 12.9284 10.8072 13.425 10.7897 14.0934C10.772 14.7661 11.2892 15.2676 12.1305 15.3124ZM12.5722 25.3027C12.3299 25.3103 12.0855 25.3003 11.8457 25.3292C11.3347 25.3908 10.9148 25.7862 10.8073 26.2803C10.7115 26.7203 10.9148 27.2517 11.3543 27.4834C11.6217 27.6245 11.954 27.7034 12.2576 27.7046C15.9145 27.7191 19.5714 27.7148 23.2283 27.7117C23.4087 27.7116 23.5943 27.6997 23.7687 27.6572C24.6008 27.4545 24.9415 26.5286 24.4555 25.8264C24.1519 25.3878 23.7138 25.3 23.222 25.3006C19.7017 25.3047 16.1813 25.3027 12.5722 25.3027Z" fill="white"/>
<path d="M30.9399 48.4666C27.9491 47.0031 25.9958 44.701 25.2777 41.4627C24.4543 37.7498 25.4568 34.5129 28.1441 31.8504C30.0663 29.9459 32.4444 29.0303 35.1354 29.0089C39.7163 28.9723 43.8335 32.1957 44.9593 36.6533C46.3855 42.3006 42.8812 47.9795 37.1966 49.1791C35.0591 49.6301 32.9716 49.3895 30.9399 48.4666ZM40.1322 40.2108C39.3829 38.5817 38.0709 37.8535 36.3227 37.8419C36.3227 36.9066 36.3227 36.0013 36.3227 35.0769C36.5026 35.0769 36.6531 35.0769 36.8036 35.0769C37.578 35.0768 38.3528 35.0909 39.1269 35.0726C39.9183 35.0539 40.4539 34.4988 40.4096 33.7811C40.37 33.1388 39.8351 32.6741 39.0897 32.6646C38.1678 32.6529 37.2456 32.6618 36.3302 32.6618C36.2059 31.6719 35.8344 31.2057 35.1697 31.1658C34.4616 31.1232 34.0908 31.5311 33.8332 32.6584C32.7323 32.6395 31.6728 32.785 30.7768 33.5432C29.8847 34.2982 29.4286 35.2618 29.3973 36.4089C29.374 37.2644 29.6368 38.0574 30.1665 38.7473C31.1042 39.9687 32.3923 40.3489 33.8669 40.2442C33.8669 41.2161 33.8669 42.1237 33.8669 43.0579C33.6712 43.0579 33.5058 43.0576 33.3404 43.058C32.399 43.0597 31.4574 43.0545 30.5161 43.0662C30.0227 43.0723 29.6962 43.3661 29.4932 43.7847C29.2974 44.1882 29.3633 44.5824 29.637 44.9428C29.9054 45.2963 30.2563 45.4558 30.6971 45.4533C31.7537 45.4473 32.8103 45.4514 33.8605 45.4514C33.9881 46.74 34.3125 47.2088 35.0575 47.2287C35.8211 47.2491 36.1778 46.7615 36.3312 45.4875C39.5117 45.1172 41.0694 42.9917 40.1322 40.2108Z" fill="white"/>
<path d="M33.9116 37.0609C33.9116 37.3166 33.9116 37.5279 33.9116 37.7709C33.2004 37.8516 32.5326 37.874 32.0685 37.2225C31.7291 36.7461 31.7049 36.2247 31.9959 35.7197C32.4266 34.9726 33.1377 34.9876 33.9116 35.0559C33.9116 35.7177 33.9116 36.3672 33.9116 37.0609Z" fill="white"/>
<path d="M36.7601 43.0442C36.6089 43.0486 36.4954 43.0486 36.3633 43.0486C36.3633 42.1074 36.3633 41.1999 36.3633 40.294C37.164 40.1358 37.8439 40.593 38.0056 41.391C38.1627 42.1665 37.6758 42.8312 36.7601 43.0442Z" fill="white"/>
</svg>
