<svg width="52" height="52" viewBox="0 0 52 52" fill="none" xmlns="http://www.w3.org/2000/svg">
<path d="M2.6001 46.7043C3.49658 46.6615 4.39306 46.6615 5.32871 46.6615C5.32871 42.0311 5.32871 37.424 5.32871 32.7918C8.11602 32.7918 10.8641 32.7918 13.6515 32.7918C13.6515 37.4018 13.6515 42.0089 13.6515 46.6387C14.5802 46.6387 15.4699 46.6387 16.3987 46.6387C16.3987 39.2787 16.3987 31.9295 16.3987 24.5599C19.1553 24.5599 21.8729 24.5599 24.6294 24.5599C24.6294 31.9263 24.6294 39.2755 24.6294 46.6431C25.5469 46.6431 26.4259 46.6431 27.3442 46.6431C27.3442 41.1304 27.3442 35.6093 27.3442 30.0562C30.1007 30.0562 32.8185 30.0562 35.5754 30.0562C35.5754 35.5598 35.5754 41.0809 35.5754 46.6318C36.5034 46.6318 37.3933 46.6318 38.3222 46.6318C38.3222 37.4643 38.3222 28.287 38.3222 19.0821C41.1089 19.0821 43.857 19.0821 46.6439 19.0821C46.6439 28.2553 46.6439 37.4326 46.6439 46.6615C47.5591 46.6615 48.4368 46.6615 49.3573 46.6615C49.4001 47.5749 49.4001 48.4883 49.4001 49.4C33.8001 49.4 18.2001 49.4 2.6001 49.4C2.6001 48.5131 2.6001 47.6301 2.6001 46.7043Z" fill="white"/>
<path d="M49.4 13.5268C48.5035 13.5697 47.6071 13.5697 46.6779 13.5697C46.6779 11.4986 46.6779 9.4498 46.6779 7.26401C41.5698 12.3414 36.5466 17.3344 31.511 22.3396C27.8617 18.6898 24.2175 15.0452 20.467 11.2942C15.3067 16.5526 10.1999 21.7563 5.12071 26.9319C4.36257 26.1676 3.73466 25.5346 3.20557 25.0012C8.91378 19.2025 14.6785 13.3464 20.451 7.48242C24.1568 11.189 27.793 14.8258 31.4906 18.5242C35.8426 14.0754 40.1591 9.66287 44.3734 5.35484C42.5421 5.35484 40.4664 5.35484 38.3396 5.35484C38.3396 4.44115 38.3396 3.56342 38.3397 2.64285C42.0199 2.60001 45.6999 2.60001 49.4 2.60001C49.4 6.22797 49.4 9.85598 49.4 13.5268Z" fill="white"/>
</svg>
